<svg width="100" height="48" viewBox="0 0 100 48" fill="none" xmlns="http://www.w3.org/2000/svg">
<circle cx="39" cy="5" r="5" fill="white"/>
<circle cx="20" cy="26" r="20" fill="white"/>
<path d="M25.9033 35H21.4795V19.1504H25.6396L25.9033 22.5342V35ZM24.0869 26.6064C24.0869 25.0049 24.3457 23.6279 24.8633 22.4756C25.3809 21.3135 26.1084 20.4199 27.0459 19.7949C27.9834 19.1699 29.0723 18.8574 30.3125 18.8574C31.3086 18.8574 32.1777 19.0527 32.9199 19.4434C33.6719 19.834 34.2578 20.4736 34.6777 21.3623C35.1074 22.2412 35.3223 23.4375 35.3223 24.9512V35H30.8838V24.9219C30.8838 24.2676 30.7861 23.7646 30.5908 23.4131C30.4053 23.0518 30.1318 22.8027 29.7705 22.666C29.4092 22.5195 28.9648 22.4463 28.4375 22.4463C27.9004 22.4463 27.4316 22.5488 27.0312 22.7539C26.6406 22.9492 26.3135 23.2324 26.0498 23.6035C25.7959 23.9746 25.6055 24.4141 25.4785 24.9219C25.3516 25.4199 25.2881 25.9619 25.2881 26.5479L24.0869 26.6064Z" fill="#203656"/>
<path d="M49.8691 12.5H54.3223V35H50.3232L49.8691 31.4697V12.5ZM39.9229 26.958C39.9229 25.3467 40.1621 23.9355 40.6406 22.7246C41.1289 21.5039 41.832 20.5566 42.75 19.8828C43.6777 19.1992 44.8057 18.8574 46.1338 18.8574C47.374 18.8574 48.4092 19.2139 49.2393 19.9268C50.0791 20.6299 50.7383 21.5967 51.2168 22.8271C51.7051 24.0479 52.042 25.4346 52.2275 26.9873V27.3535C52.042 28.8281 51.7051 30.166 51.2168 31.3672C50.7383 32.5684 50.0791 33.5254 49.2393 34.2383C48.4092 34.9414 47.3643 35.293 46.1045 35.293C44.7959 35.293 43.6777 34.9463 42.75 34.2529C41.832 33.5498 41.1289 32.5928 40.6406 31.3818C40.1621 30.1709 39.9229 28.7988 39.9229 27.2656V26.958ZM44.3467 27.2656C44.3467 28.0859 44.4395 28.833 44.625 29.5068C44.8105 30.1807 45.1133 30.7178 45.5332 31.1182C45.9531 31.5088 46.5195 31.7041 47.2324 31.7041C47.9355 31.7041 48.5117 31.5479 48.9609 31.2354C49.4102 30.9131 49.752 30.4688 49.9863 29.9023C50.2207 29.3359 50.3574 28.6816 50.3965 27.9395V26.416C50.377 25.7812 50.2939 25.2197 50.1475 24.7314C50.0107 24.2334 49.8154 23.8184 49.5615 23.4863C49.3174 23.1445 49 22.8857 48.6094 22.71C48.2285 22.5342 47.7793 22.4463 47.2617 22.4463C46.5586 22.4463 45.9922 22.6465 45.5625 23.0469C45.1328 23.4375 44.8203 23.9746 44.625 24.6582C44.4395 25.332 44.3467 26.0986 44.3467 26.958V27.2656ZM57.1564 26.9287C57.1564 25.3857 57.4494 24.0088 58.0354 22.7979C58.6213 21.5771 59.4758 20.6152 60.5988 19.9121C61.7219 19.209 63.0842 18.8574 64.6857 18.8574C66.3068 18.8574 67.6789 19.209 68.802 19.9121C69.9348 20.6152 70.7893 21.5771 71.3654 22.7979C71.9514 24.0088 72.2443 25.3857 72.2443 26.9287V27.2363C72.2443 28.7695 71.9514 30.1465 71.3654 31.3672C70.7893 32.5879 69.9396 33.5498 68.8166 34.2529C67.6936 34.9463 66.3264 35.293 64.715 35.293C63.1037 35.293 61.7316 34.9463 60.5988 34.2529C59.4758 33.5498 58.6213 32.5879 58.0354 31.3672C57.4494 30.1465 57.1564 28.7695 57.1564 27.2363V26.9287ZM61.5949 27.2363C61.5949 28.0664 61.6926 28.8232 61.8879 29.5068C62.093 30.1904 62.4201 30.7324 62.8693 31.1328C63.3283 31.5332 63.9436 31.7334 64.715 31.7334C65.4768 31.7334 66.0822 31.5332 66.5314 31.1328C66.9904 30.7324 67.3176 30.1904 67.5129 29.5068C67.718 28.8232 67.8205 28.0664 67.8205 27.2363V26.9287C67.8205 26.1182 67.718 25.3711 67.5129 24.6875C67.3176 23.9941 66.9904 23.4424 66.5314 23.0322C66.0822 22.6221 65.467 22.417 64.6857 22.417C63.924 22.417 63.3137 22.6221 62.8547 23.0322C62.4055 23.4424 62.0832 23.9941 61.8879 24.6875C61.6926 25.3711 61.5949 26.1182 61.5949 26.9287V27.2363ZM82.8861 22.373H73.5258V19.1504H82.8861V22.373ZM80.2055 15.2393V30.0488C80.2055 30.4785 80.2592 30.8105 80.3666 31.0449C80.4838 31.2793 80.6645 31.4404 80.9086 31.5283C81.1527 31.6162 81.4555 31.6602 81.8168 31.6602C82.0805 31.6602 82.3148 31.6504 82.5199 31.6309C82.725 31.6113 82.9008 31.5869 83.0473 31.5576L83.0326 34.8975C82.6713 35.0244 82.2758 35.1221 81.8461 35.1904C81.4262 35.2588 80.9525 35.293 80.4252 35.293C79.4779 35.293 78.6527 35.1367 77.9496 34.8242C77.2562 34.502 76.7191 33.9941 76.3383 33.3008C75.9672 32.5977 75.7816 31.6797 75.7816 30.5469V15.2393H80.2055ZM93.9527 30.5762C93.9527 30.2832 93.8648 30.0293 93.6891 29.8145C93.523 29.5996 93.2105 29.3994 92.7516 29.2139C92.2926 29.0283 91.6285 28.8428 90.7594 28.6572C89.6949 28.4229 88.733 28.1055 87.8736 27.7051C87.024 27.3047 86.3551 26.7871 85.8668 26.1523C85.3785 25.5078 85.1344 24.7314 85.1344 23.8232C85.1344 22.9346 85.3883 22.1143 85.8961 21.3623C86.4039 20.6104 87.1314 20.0049 88.0787 19.5459C89.0357 19.0869 90.1783 18.8574 91.5064 18.8574C92.8932 18.8574 94.0895 19.0771 95.0953 19.5166C96.1012 19.9561 96.8727 20.5615 97.4098 21.333C97.9469 22.1045 98.2154 22.9883 98.2154 23.9844H93.7916C93.7916 23.3887 93.6061 22.9053 93.235 22.5342C92.8736 22.1533 92.2926 21.9629 91.4918 21.9629C91.0621 21.9629 90.6861 22.0361 90.3639 22.1826C90.0416 22.3291 89.7926 22.5244 89.6168 22.7686C89.4508 23.0029 89.3678 23.2812 89.3678 23.6035C89.3678 23.8965 89.4605 24.1553 89.6461 24.3799C89.8316 24.6045 90.1344 24.7998 90.5543 24.9658C90.9742 25.1318 91.5357 25.2783 92.2389 25.4053C93.3619 25.6201 94.3775 25.918 95.2857 26.2988C96.1939 26.6699 96.9166 27.1826 97.4537 27.8369C97.9908 28.4814 98.2594 29.3408 98.2594 30.415C98.2594 31.3525 97.9811 32.1924 97.4244 32.9346C96.8775 33.667 96.0963 34.2432 95.0807 34.6631C94.0748 35.083 92.8883 35.293 91.5211 35.293C90.027 35.293 88.7672 35.0244 87.7418 34.4873C86.7164 33.9502 85.94 33.2715 85.4127 32.4512C84.8854 31.6211 84.6217 30.7764 84.6217 29.917H88.8111C88.8404 30.4443 88.982 30.874 89.2359 31.2061C89.4996 31.5381 89.8365 31.7822 90.2467 31.9385C90.6666 32.0947 91.1256 32.1729 91.6236 32.1729C92.1314 32.1729 92.5563 32.1094 92.898 31.9824C93.2496 31.8457 93.5133 31.6602 93.6891 31.4258C93.8648 31.1816 93.9527 30.8984 93.9527 30.5762Z" fill="white"/>
</svg>
